<svg xmlns="http://www.w3.org/2000/svg" xmlns:xlink="http://www.w3.org/1999/xlink" width="390" height="570" viewBox="0 0 390 570">
  <defs>
    <clipPath id="clip-path">
      <rect id="Rectangle_23" data-name="Rectangle 23" width="265.69" height="569.385" fill="none"/>
    </clipPath>
  </defs>
  <g id="RedShield" transform="translate(0 -80)">
    <rect id="Rectangle_6" data-name="Rectangle 6" width="390" height="570" transform="translate(0 80)" fill="#cb333b"/>
    <g id="Group_38" data-name="Group 38" transform="translate(0 80)">
      <g id="Group_37" data-name="Group 37" clip-path="url(#clip-path)">
        <g id="Group_36" data-name="Group 36">
          <g id="Group_35" data-name="Group 35" clip-path="url(#clip-path)">
            <g id="Group_34" data-name="Group 34" opacity="0.2">
              <g id="Group_33" data-name="Group 33">
                <g id="Group_32" data-name="Group 32" clip-path="url(#clip-path)">
                  <path id="Path_204" data-name="Path 204" d="M18.657,565.044c5.336-7.364,11.06-14.423,18.223-20.063C47.4,536.7,59.259,530.649,71.329,524.945c19.684-9.3,40.061-16.859,60.4-24.531,20.141-7.6,39.706-16.32,57.282-29a153.677,153.677,0,0,0,28.026-25.538,140.04,140.04,0,0,0,27.314-50.572,155.766,155.766,0,0,0,6.4-38.136,212.836,212.836,0,0,0-.863-33.1c-1.063-9.34-2.373-18.618-4.358-27.8-4.143-19.156-9.486-38.05-11.717-57.62-1.1-9.606-1.986-19.221-2.4-28.856a193.582,193.582,0,0,1,.285-22.265c.557-7.752,1.165-15.474,2.207-23.181A206.512,206.512,0,0,1,246,117.125c4.933-12.709,10.587-25.064,19.674-35.48C267.222,79.867,173.294,10.675,159.024,0H0V569.385H16.164v-2.026c.653.073,1.292-.657,2.493-2.315" fill="#fff"/>
                </g>
              </g>
            </g>
          </g>
        </g>
      </g>
    </g>
  </g>
</svg>
